<!-- Generated by IcoMoon.io -->
<svg version="1.1" xmlns="http://www.w3.org/2000/svg" width="33" height="32" viewBox="0 0 33 32">
<title>Group-1</title>
<path fill="none" stroke-linejoin="miter" stroke-linecap="round" stroke-miterlimit="4" stroke-width="1.7778" stroke="#000" d="M8.918 18.98c-0.398-0.353-1.468-0.357-1.946-0.242-1.471 0.355-3.405 0.924-4.386 2.144-0.768 0.955-1.491 2.043-1.578 3.298-0.098 1.42 0.363 2.886 1.38 3.903 0.985 0.985 2.32 1.63 3.661 1.979 1.312 0.341 2.773 0.664 4.117 0.242 1.456-0.457 2.481-1.316 3.666-2.243 1.313-1.027 2.378-2.071 3.342-3.441 0.928-1.318 1.745-2.732 2.732-4.007 0.807-1.043 2.328-2.28 3.655-2.501 1.815-0.302 3.418-0.004 5.101 0.731 1.783 0.779 2.178 2.4 2.573 4.090 0.291 1.245-0.303 2.213-0.649 3.403-0.265 0.912-0.876 1.733-1.539 2.397-0.796 0.796-1.883 1.072-2.858 1.55-0.44 0.216-1.014 0.465-1.506 0.473-0.777 0.013-1.327-0.35-2.012-0.693"></path>
<path fill="none" stroke-linejoin="miter" stroke-linecap="round" stroke-miterlimit="4" stroke-width="1.7778" stroke="#000" d="M13.47 1.764c0 1.266 0.198 2.534 0.198 3.804 0 1.905 0 3.806 0 5.711 0 0.509 0.056 6.118 0.594 6.118"></path>
<path fill="none" stroke-linejoin="miter" stroke-linecap="round" stroke-miterlimit="4" stroke-width="1.7778" stroke="#000" d="M13.47 1.27c-0.334 0 0.671 0.053 0.989 0.154 0.42 0.134 0.859 0.345 1.286 0.44 0.955 0.212 1.531 1.254 2.155 1.902 1.059 1.099 1.803 2.536 2.149 3.991 0.109 0.459 0.112 1.054-0.027 1.506-0.125 0.406 0.077 0.879-0.044 1.286-0.29 0.978-0.586 1.902-1.171 2.743-0.471 0.677-0.935 1.518-1.501 2.105-0.994 1.032-2.136 1.619-3.441 2.199"></path>
<path fill="none" stroke-linejoin="miter" stroke-linecap="round" stroke-miterlimit="4" stroke-width="1.7778" stroke="#000" d="M13.569 2.16c0.801 0 1.471 0.386 2.056 0.912 0.238 0.215 0.578 0.357 0.792 0.594 0.307 0.341 0.483 0.736 0.814 1.066 0.277 0.277 0.595 0.64 0.77 0.989 0.213 0.425 0.165 0.89 0.341 1.286 0.124 0.279 0.456 0.78 0.473 1.088 0.020 0.36 0 0.727 0 1.088 0 0.759-0.156 1.524-0.198 2.276-0.014 0.25-0.359 0.832-0.473 1.088-0.156 0.351-0.122 0.739-0.297 1.088-0.296 0.592-0.713 1.453-1.308 1.803-0.517 0.304-1.32 0.979-1.682 1.462"></path>
<path fill="none" stroke-linejoin="miter" stroke-linecap="round" stroke-miterlimit="4" stroke-width="1.7778" stroke="#000" d="M5.752 19.277c-0.881 0-1.486 0.896-2.325 1.083-0.618 0.137-1.052 1.065-1.314 1.589-0.638 1.275-1.12 2.552 0.033 3.705 0.681 0.681 1.224 1.409 2.122 1.858 0.599 0.299 1.105 0.869 1.836 0.869 0.422 0 0.694 0.304 1.083 0.39 0.396 0.088 0.834 0.28 1.237 0.302 0.833 0.046 1.634 0.198 2.474 0.198"></path>
<path fill="none" stroke-linejoin="miter" stroke-linecap="round" stroke-miterlimit="4" stroke-width="1.7778" stroke="#000" d="M10.007 29.271c0.777-0.078 1.492-0.594 2.276-0.594"></path>
<path fill="none" stroke-linejoin="miter" stroke-linecap="round" stroke-miterlimit="4" stroke-width="1.7778" stroke="#000" d="M11.986 28.677c0.704-0.078 1.48-0.69 2.078-0.989"></path>
<path fill="none" stroke-linejoin="miter" stroke-linecap="round" stroke-miterlimit="4" stroke-width="1.7778" stroke="#000" d="M3.773 20.663c-0.034-0.268-0.463 0.228-0.517 0.297-0.252 0.327-0.327 0.638-0.522 0.984-0.238 0.423-0.541 0.857-0.649 1.341-0.098 0.44-0.192 0.739-0.192 1.215 0 0.775 0.416 1.56 0.693 2.298"></path>
<path fill="none" stroke-linejoin="miter" stroke-linecap="round" stroke-miterlimit="4" stroke-width="1.7778" stroke="#000" d="M2.487 22.938c-0.315 0.354-0.14 1.639-0.093 2.133 0.073 0.77 0.406 1.523 0.885 2.122"></path>
<path fill="none" stroke-linejoin="miter" stroke-linecap="round" stroke-miterlimit="4" stroke-width="1.7778" stroke="#000" d="M27.124 18.98c0.486 0.061 0.769 0.925 1.286 0.989 0.718 0.090 0.849 0.716 1.138 1.237 0.571 1.027 1.008 1.787 0.94 3.018-0.025 0.454-0.139 1.079-0.319 1.484-0.186 0.418-0.262 1.197-0.621 1.484-0.257 0.206-0.368 0.517-0.594 0.742-0.234 0.234-0.593 0.445-0.786 0.693-0.718 0.922-1.588 1.316-2.726 1.633"></path>
<path fill="none" stroke-linejoin="miter" stroke-linecap="round" stroke-miterlimit="4" stroke-width="1.7778" stroke="#000" d="M26.827 19.475c-0.265-0.236-0.734-0.554-1.088-0.594-0.149-0.017-0.38-0.224-0.544-0.297-0.805-0.358-1.437-0.236-2.325-0.099"></path>
<path fill="none" stroke-linejoin="miter" stroke-linecap="round" stroke-miterlimit="4" stroke-width="1.7778" stroke="#000" d="M25.541 18.882c-0.21-0.237-0.042-0.047 0.099 0"></path>
<path fill="none" stroke-linejoin="miter" stroke-linecap="round" stroke-miterlimit="4" stroke-width="1.7778" stroke="#000" d="M25.541 18.882c0.6 0.155 0.035 0.099-0.22 0.099-0.379 0-0.742 0.125-1.11 0.192-0.46 0.084-0.97 0.104-1.44 0.104-0.491 0-0.802 0.203-1.237 0.396-1.055 0.469-1.937 1.223-2.721 2.078"></path>
</svg>
