<!-- Generated by IcoMoon.io -->
<svg version="1.1" xmlns="http://www.w3.org/2000/svg" width="40" height="32" viewBox="0 0 40 32">
<title>menu-icon</title>
<path d="M2.526 13.474h35.368c1.395 0 2.526 1.131 2.526 2.526s-1.131 2.526-2.526 2.526h-35.368c-1.395 0-2.526-1.131-2.526-2.526s1.131-2.526 2.526-2.526z"></path>
<path d="M2.526 0h35.368c1.395 0 2.526 1.131 2.526 2.526s-1.131 2.526-2.526 2.526h-35.368c-1.395 0-2.526-1.131-2.526-2.526s1.131-2.526 2.526-2.526z"></path>
<path d="M2.526 26.947h35.368c1.395 0 2.526 1.131 2.526 2.526s-1.131 2.526-2.526 2.526h-35.368c-1.395 0-2.526-1.131-2.526-2.526s1.131-2.526 2.526-2.526z"></path>
</svg>
