<svg width="55" height="54" viewBox="0 0 55 54" fill="none" xmlns="http://www.w3.org/2000/svg">
<path d="M15.0499 32.0296C14.3789 31.4331 12.572 31.427 11.7662 31.6215C9.28416 32.2206 6.01946 33.181 4.36405 35.2391C3.06764 36.8508 1.84795 38.6863 1.70186 40.8047C1.53662 43.2006 2.31425 45.6747 4.03012 47.3906C5.69231 49.0528 7.94571 50.1411 10.2079 50.7299C12.4223 51.3062 14.8871 51.851 17.1556 51.138C19.612 50.366 21.3424 48.9177 23.3426 47.3535C25.5588 45.6203 27.3557 43.8583 28.9824 41.5467C30.5476 39.3224 31.9268 36.9361 33.5925 34.7846C34.9549 33.0248 37.5205 30.9374 39.761 30.564C42.823 30.0537 45.5295 30.5579 48.3691 31.7977C51.3787 33.1118 52.0448 35.8471 52.7102 38.699C53.2004 40.7998 52.1984 42.4337 51.6156 44.4408C51.1689 45.9795 50.1378 47.3657 49.0184 48.4851C47.6753 49.8282 45.8413 50.2939 44.1949 51.1009C43.4529 51.4647 42.484 51.885 41.6533 51.8987C40.3426 51.9202 39.4138 51.3076 38.2583 50.7299" stroke="black" stroke-width="3" stroke-linecap="round"/>
<path d="M22.7304 2.9774C22.7304 5.11338 23.0643 7.25396 23.0643 9.39635C23.0643 12.6115 23.0643 15.8185 23.0643 19.034C23.0643 19.8936 23.158 29.3582 24.0661 29.3582" stroke="black" stroke-width="3" stroke-linecap="round"/>
<path d="M22.7304 2.14258C22.1671 2.14258 23.8633 2.23152 24.4001 2.4023C25.1083 2.62764 25.8494 2.9841 26.5706 3.14438C28.1817 3.50239 29.1534 5.2599 30.2068 6.35385C31.9932 8.20899 33.2493 10.6337 33.8337 13.0882C34.0183 13.8634 34.0221 14.8666 33.7873 15.6298C33.5766 16.3147 33.9169 17.1126 33.7131 17.8004C33.2241 19.4508 32.7242 21.0104 31.7373 22.429C30.9427 23.5713 30.1602 24.9898 29.205 25.9817C27.5272 27.724 25.6009 28.7132 23.3983 29.6921" stroke="black" stroke-width="3" stroke-linecap="round"/>
<path d="M22.8974 3.64528C24.2489 3.64528 25.3801 4.2973 26.3666 5.18508C26.7688 5.5471 27.3427 5.78734 27.7023 6.18688C28.2206 6.76279 28.517 7.42831 29.0751 7.98641C29.5425 8.45381 30.0792 9.06701 30.3738 9.65608C30.7325 10.3736 30.6514 11.1573 30.9489 11.8267C31.1585 12.2983 31.7177 13.1428 31.7466 13.6633C31.7804 14.2712 31.7466 14.8909 31.7466 15.4999C31.7466 16.7805 31.4832 18.0713 31.4127 19.3402C31.3892 19.7622 30.8074 20.7437 30.6149 21.1768C30.3517 21.7691 30.4093 22.423 30.114 23.0134C29.6147 24.0121 28.9107 25.4652 27.9064 26.0559C27.0335 26.5694 25.6797 27.7077 25.0679 28.5233" stroke="black" stroke-width="3" stroke-linecap="round"/>
<path d="M9.70699 32.5305C8.21946 32.5305 7.19894 34.0433 5.78327 34.3579C4.73989 34.5898 4.00818 36.1549 3.56632 37.0386C2.4905 39.1903 1.67625 41.3449 3.62198 43.2906C4.77115 44.4398 5.68684 45.6681 7.20249 46.4259C8.21327 46.9313 9.06681 47.8915 10.3007 47.8915C11.0124 47.8915 11.4726 48.4044 12.128 48.5501C12.7958 48.6985 13.536 49.0225 14.2151 49.0602C15.6206 49.1383 16.972 49.3942 18.3893 49.3942" stroke="black" stroke-width="3" stroke-linecap="round"/>
<path d="M16.8866 49.3942C18.1978 49.263 19.4041 48.3924 20.7268 48.3924" stroke="black" stroke-width="3" stroke-linecap="round"/>
<path d="M20.2259 48.3924C21.4133 48.2604 22.7229 47.2274 23.7322 46.7227" stroke="black" stroke-width="3" stroke-linecap="round"/>
<path d="M6.36765 34.8681C6.31109 34.4156 5.58564 35.2524 5.49571 35.369C5.07053 35.9201 4.94314 36.4451 4.6145 37.0294C4.21272 37.7436 3.70164 38.475 3.51994 39.2927C3.35507 40.0346 3.19528 40.5393 3.19528 41.3427C3.19528 42.651 3.89731 43.9754 4.36405 45.22" stroke="black" stroke-width="3" stroke-linecap="round"/>
<path d="M4.19709 38.7083C3.66573 39.3061 3.96009 41.4747 4.0394 42.3074C4.16313 43.6065 4.72383 44.8766 5.53282 45.8879" stroke="black" stroke-width="3" stroke-linecap="round"/>
<path d="M45.7718 32.0296C46.5924 32.1322 47.0697 33.5902 47.9424 33.6993C49.1548 33.8508 49.3745 34.908 49.8625 35.7864C50.8255 37.5198 51.564 38.8027 51.4487 40.8789C51.4061 41.6456 51.2146 42.6995 50.9107 43.3834C50.597 44.0891 50.4692 45.4025 49.8625 45.8879C49.4281 46.2354 49.2408 46.76 48.8607 47.1401C48.4666 47.5342 47.8595 47.8907 47.5342 48.3089C46.3234 49.8656 44.8543 50.5303 42.9334 51.0638" stroke="black" stroke-width="3" stroke-linecap="round"/>
<path d="M45.2709 32.8645C44.8234 32.4667 44.0317 31.929 43.4343 31.8627C43.182 31.8346 42.7928 31.4848 42.516 31.3618C41.1576 30.758 40.0915 30.9641 38.5922 31.1948" stroke="black" stroke-width="3" stroke-linecap="round"/>
<path d="M43.1003 31.8627C42.7451 31.4631 43.0293 31.7833 43.2673 31.8627" stroke="black" stroke-width="3" stroke-linecap="round"/>
<path d="M43.1003 31.8627C44.1125 32.1239 43.1589 32.0296 42.7293 32.0296C42.0894 32.0296 41.4779 32.2411 40.8556 32.3543C40.0795 32.4954 39.2189 32.5305 38.4253 32.5305C37.5974 32.5305 37.0721 32.8722 36.3382 33.1984C34.5584 33.9894 33.0694 35.2616 31.7466 36.7047" stroke="black" stroke-width="3" stroke-linecap="round"/>
</svg>
